<?xml version="1.0" standalone="no"?>
<!DOCTYPE svg PUBLIC "-//W3C//DTD SVG 20010904//EN"
 "http://www.w3.org/TR/2001/REC-SVG-20010904/DTD/svg10.dtd">
<svg version="1.0" xmlns="http://www.w3.org/2000/svg"
 width="3831.000000pt" height="1094.000000pt" viewBox="0 0 3831.000000 1094.000000"
 preserveAspectRatio="xMidYMid meet">

<g transform="translate(0.000000,1094.000000) scale(0.100000,-0.100000)"
fill="#000000" stroke="none">
<path d="M7850 9370 c-142 -8 -441 -43 -510 -60 -57 -13 -12 -11 95 5 55 9
145 15 200 15 202 -1 225 0 200 9 -36 14 90 20 340 16 298 -4 397 -13 675 -65
30 -6 93 -17 140 -26 47 -8 112 -24 145 -34 33 -10 89 -26 125 -35 69 -17 152
-45 160 -54 3 -4 12 -7 20 -9 21 -5 141 -51 162 -63 10 -5 27 -9 38 -9 11 0
20 -4 20 -10 0 -5 7 -10 15 -10 28 0 110 -32 141 -56 17 -13 33 -22 35 -20 2
2 10 -2 17 -10 11 -12 9 -14 -7 -14 -11 0 -22 -4 -26 -9 -3 -6 7 -6 26 -1 23
7 37 5 55 -6 13 -9 27 -13 32 -10 12 7 35 -18 25 -27 -6 -6 20 -11 40 -8 12 2
8 -17 -5 -22 -7 -2 -10 -8 -6 -12 4 -4 15 -2 24 5 13 12 17 11 24 -1 7 -10 4
-16 -8 -21 -10 -4 -12 -7 -4 -7 8 -1 22 -11 32 -23 16 -20 21 -21 32 -9 11 12
10 13 -2 9 -11 -4 -16 0 -16 13 0 13 4 15 13 8 7 -6 17 -8 23 -4 5 3 10 -1 10
-9 0 -8 6 -16 13 -19 6 -2 4 -3 -5 -2 -10 2 -21 -1 -24 -6 -3 -5 11 -9 31 -9
26 0 42 -7 55 -22 17 -22 17 -22 -7 -35 -14 -7 -32 -13 -40 -13 -10 0 -13 -6
-9 -16 3 -9 6 -20 6 -25 0 -6 5 -7 10 -4 6 3 10 2 10 -3 0 -6 19 -9 41 -8 34
1 43 -3 50 -21 5 -13 16 -24 26 -25 10 0 23 -2 30 -2 6 -1 21 -10 32 -20 17
-15 24 -17 33 -8 16 16 31 15 25 -2 -5 -12 0 -12 26 -5 40 11 50 11 42 0 -3
-6 4 -8 15 -6 11 2 20 0 20 -4 0 -4 16 -16 35 -27 19 -10 35 -22 35 -27 0 -4
5 -5 10 -2 6 3 10 -1 10 -9 0 -9 7 -16 14 -16 8 0 54 -38 101 -85 60 -60 85
-91 81 -103 -3 -9 -1 -24 4 -32 8 -12 11 -13 22 -2 11 11 10 13 -1 10 -7 -2
-16 3 -18 10 -11 29 26 8 45 -26 12 -22 12 -23 -10 -18 -13 3 -17 3 -10 0 6
-3 12 -13 12 -22 1 -14 4 -13 19 4 17 21 18 21 29 3 15 -24 15 -30 0 -27 -6 2
-14 -6 -16 -16 -3 -14 0 -17 11 -13 9 3 18 0 20 -7 4 -10 -1 -12 -14 -9 -11 3
-19 0 -19 -6 0 -7 6 -9 13 -5 6 4 3 -2 -8 -13 -11 -11 -23 -19 -27 -16 -5 2
-8 -5 -8 -15 0 -11 -7 -23 -16 -26 -12 -5 -14 -10 -5 -20 6 -7 8 -16 4 -19 -3
-4 5 -7 20 -7 14 0 31 -8 36 -17 9 -15 12 -16 20 -4 12 18 32 5 25 -17 -5 -14
-4 -15 5 -2 9 13 14 12 42 -4 21 -13 29 -14 24 -5 -8 12 -6 12 8 0 11 -9 17
-10 17 -2 0 18 35 13 63 -9 15 -12 24 -27 20 -35 -3 -10 2 -15 16 -15 12 0 21
4 21 10 0 16 34 -2 55 -29 11 -14 20 -28 20 -31 0 -3 10 -15 22 -27 21 -21 36
-41 113 -157 19 -29 61 -91 93 -137 31 -46 57 -89 57 -96 0 -7 5 -13 10 -13 6
0 10 -6 10 -14 0 -8 5 -16 12 -18 7 -3 8 -10 4 -17 -7 -11 -10 -11 -17 0 -7
11 -9 10 -9 -4 0 -13 5 -17 18 -13 14 5 24 -3 38 -29 10 -19 22 -35 26 -35 5
0 8 -9 8 -19 0 -13 -11 -24 -35 -32 -19 -7 -35 -16 -35 -20 0 -4 -16 -13 -35
-19 -19 -6 -37 -16 -41 -21 -3 -6 9 -4 28 4 107 47 148 68 148 76 0 5 -32 60
-71 123 -39 62 -83 133 -97 156 -15 24 -60 90 -100 145 -40 56 -88 125 -107
152 -66 97 -234 282 -419 463 -103 100 -192 182 -197 182 -9 0 -22 9 -99 75
-111 94 -177 138 -193 129 -6 -4 -8 -3 -4 1 14 16 -299 208 -483 298 -419 203
-858 325 -1355 377 -142 15 -484 20 -655 10z m2385 -628 c-3 -3 -11 0 -18 7
-9 10 -8 11 6 5 10 -3 15 -9 12 -12z m70 -100 c14 -10 17 -32 5 -32 -5 0 -14
9 -20 20 -11 20 -4 26 15 12z m44 -28 c4 3 8 -1 8 -9 0 -11 -4 -12 -14 -4 -7
6 -13 17 -12 23 0 7 2 6 6 -2 2 -6 8 -10 12 -8z m112 -21 c13 -16 12 -17 -3
-4 -17 13 -22 21 -14 21 2 0 10 -8 17 -17z m-17 -22 c-2 -3 -12 3 -22 13 -16
17 -16 18 5 5 12 -7 20 -15 17 -18z"/>
<path d="M8133 9326 c2 -6 14 -10 26 -9 12 2 40 -1 61 -6 24 -5 40 -5 40 0 0
5 -11 9 -25 9 -14 0 -25 4 -25 9 0 4 -18 8 -40 8 -26 0 -39 -4 -37 -11z"/>
<path d="M8280 9310 c0 -5 4 -10 9 -10 6 0 13 5 16 10 3 6 -1 10 -9 10 -9 0
-16 -4 -16 -10z"/>
<path d="M8390 9308 c0 -4 4 -8 9 -8 6 0 12 4 15 8 3 5 -1 9 -9 9 -8 0 -15 -4
-15 -9z"/>
<path d="M7185 9281 c-142 -31 -317 -81 -429 -122 -182 -66 -556 -241 -556
-260 0 -5 22 5 49 21 26 17 51 30 55 30 3 0 52 22 108 48 146 69 172 81 219
97 51 18 49 18 49 0 0 -9 6 -12 15 -9 8 4 13 10 10 14 -6 10 23 35 32 27 3 -4
15 -1 27 6 27 15 88 37 104 37 6 0 12 -5 12 -11 0 -5 -4 -8 -9 -5 -5 3 -14 -1
-21 -9 -7 -8 -21 -15 -31 -15 -10 0 -21 -4 -24 -10 -3 -5 -15 -10 -26 -10 -10
0 -19 -7 -19 -15 0 -8 7 -15 15 -15 8 0 15 -7 15 -16 0 -14 7 -15 48 -8 26 4
70 8 97 8 28 1 65 9 83 18 17 9 32 12 32 7 0 -5 18 -9 40 -9 22 0 40 5 40 10
0 6 7 10 15 10 8 0 15 5 15 10 0 6 10 10 23 10 20 0 20 1 -6 15 -22 11 -34 12
-49 4 -16 -8 -24 -8 -35 4 -13 13 -11 16 23 28 22 7 47 12 57 11 9 0 15 3 12
9 -4 5 -13 9 -21 9 -8 0 -14 5 -14 10 0 6 12 10 26 10 15 0 23 4 18 11 -3 6
-16 8 -28 5 -11 -3 -28 -1 -36 4 -12 8 -12 10 5 11 11 1 29 1 40 1 16 -2 17 0
5 8 -11 7 -5 10 25 11 22 0 56 7 75 14 49 19 12 17 -85 -4z m-185 -125 c0 -3
-4 -8 -10 -11 -5 -3 -10 -1 -10 4 0 6 5 11 10 11 6 0 10 -2 10 -4z m60 0 c0
-3 -4 -8 -10 -11 -5 -3 -10 -1 -10 4 0 6 5 11 10 11 6 0 10 -2 10 -4z m-30
-16 c0 -5 -4 -10 -10 -10 -5 0 -10 5 -10 10 0 6 5 10 10 10 6 0 10 -4 10 -10z"/>
<path d="M9030 9210 c-9 -6 -10 -10 -3 -10 6 0 15 5 18 10 8 12 4 12 -15 0z"/>
<path d="M8828 9203 c7 -3 16 -2 19 1 4 3 -2 6 -13 5 -11 0 -14 -3 -6 -6z"/>
<path d="M8940 9190 c-13 -9 -13 -10 0 -10 8 0 22 5 30 10 13 9 13 10 0 10 -8
0 -22 -5 -30 -10z"/>
<path d="M9110 9189 c0 -6 -10 -8 -22 -4 -21 5 -21 5 2 -9 22 -12 26 -12 33 0
9 16 27 19 27 3 0 -5 -6 -7 -12 -3 -10 5 -10 4 -1 -6 9 -9 15 -8 30 7 19 19
18 19 -19 20 -21 1 -38 -3 -38 -8z"/>
<path d="M9350 9109 c0 -6 -12 -8 -32 -5 l-33 6 35 -14 c25 -9 37 -10 42 -2
11 15 10 26 -2 26 -5 0 -10 -5 -10 -11z"/>
<path d="M8810 9100 c-12 -8 -11 -10 8 -10 12 0 22 5 22 10 0 13 -11 13 -30 0z"/>
<path d="M8925 9083 c4 -10 10 -28 12 -40 5 -21 10 -22 62 -18 32 2 55 9 54
15 -2 5 2 10 7 10 6 0 10 -4 10 -10 0 -17 25 -11 40 10 8 11 17 15 20 10 4 -6
30 -13 59 -16 49 -4 52 -3 46 16 -5 15 -2 20 11 20 10 0 14 3 11 6 -12 12 -82
13 -117 2 -19 -7 -59 -11 -87 -10 -36 1 -53 -3 -53 -11 0 -7 -10 -18 -21 -26
-20 -12 -21 -11 -17 7 3 12 -2 26 -13 36 -25 21 -33 20 -24 -1z m115 -29 c0
-8 -4 -12 -10 -9 -5 3 -10 10 -10 16 0 5 5 9 10 9 6 0 10 -7 10 -16z"/>
<path d="M9765 8970 c-3 -6 1 -7 9 -4 18 7 21 14 7 14 -6 0 -13 -4 -16 -10z"/>
<path d="M6144 8874 c-18 -14 -18 -15 4 -4 12 6 22 13 22 15 0 8 -5 6 -26 -11z"/>
<path d="M9745 8870 c-4 -6 8 -10 29 -10 20 0 36 5 36 10 0 6 -13 10 -29 10
-17 0 -33 -4 -36 -10z"/>
<path d="M9950 8871 c0 -6 4 -13 10 -16 6 -3 7 1 4 9 -7 18 -14 21 -14 7z"/>
<path d="M6106 8853 c-2 -5 -28 -21 -58 -36 -85 -45 -376 -253 -505 -362 -238
-201 -526 -514 -695 -755 -55 -79 -180 -278 -237 -380 -201 -355 -364 -856
-442 -1360 -20 -129 -23 -183 -23 -485 -1 -224 3 -373 12 -435 36 -270 116
-625 185 -827 215 -622 568 -1159 1067 -1620 163 -150 645 -503 688 -503 4 0
5 264 2 587 l-5 588 -144 145 c-441 444 -722 1007 -821 1645 -27 175 -39 550
-21 700 17 149 76 433 120 580 108 361 323 747 597 1075 122 146 363 372 516
484 37 27 65 53 61 59 -3 6 -1 7 5 3 6 -3 46 17 89 45 97 64 464 244 595 293
53 19 152 49 220 66 123 32 168 49 93 36 -49 -8 -370 -94 -404 -107 -21 -9
-23 -8 -11 5 10 13 10 16 -1 16 -8 0 -27 7 -43 15 -26 14 -35 14 -82 0 -29 -8
-57 -21 -61 -29 -4 -7 -19 -13 -32 -12 -20 1 -25 -4 -26 -27 -2 -34 -12 -44
-27 -29 -18 18 -31 14 -26 -6 7 -26 -28 -48 -48 -31 -12 10 -13 9 -8 -5 5 -14
-2 -16 -55 -16 -45 0 -61 -4 -61 -14 0 -19 25 -37 42 -31 11 4 17 -1 20 -17 6
-31 0 -48 -17 -48 -8 0 -20 -6 -27 -13 -7 -7 -40 -28 -73 -46 -33 -19 -74 -45
-91 -60 -17 -14 -53 -42 -79 -61 -26 -19 -57 -44 -70 -55 -36 -33 -83 -65 -95
-65 -5 0 -10 -4 -10 -10 0 -5 -7 -7 -16 -3 -10 4 -14 14 -11 29 4 25 -3 24
-35 -4 -11 -9 -18 -11 -18 -4 0 6 -9 10 -20 9 -11 -1 -20 -5 -20 -10 0 -5 -16
-6 -36 -2 -26 4 -40 2 -46 -7 -8 -10 -11 -10 -15 0 -7 18 -36 15 -29 -3 3 -9
0 -15 -9 -15 -8 0 -15 5 -15 10 0 6 -12 10 -26 10 -15 0 -23 4 -19 11 4 6 13
8 21 5 8 -3 14 -1 14 4 0 6 -7 10 -15 10 -20 0 -19 16 1 24 26 10 34 7 27 -11
-5 -14 -3 -15 7 -6 16 14 5 33 -20 33 -25 0 -36 18 -16 26 9 3 16 12 16 20 0
16 -36 19 -45 4 -3 -5 -11 -7 -18 -5 -7 3 -17 -6 -23 -19 -10 -21 -9 -26 5
-29 11 -3 8 -5 -6 -6 -16 -1 -23 -7 -23 -21 0 -27 -16 -26 -23 2 -5 18 -8 19
-21 8 -11 -8 -16 -9 -16 -1 0 6 -7 11 -16 11 -10 0 -14 -6 -10 -15 3 -10 -1
-15 -14 -15 -24 0 -36 18 -16 26 11 4 14 14 9 37 -7 40 -23 59 -23 29 0 -12
-5 -22 -10 -22 -16 0 -24 31 -10 40 6 4 10 16 7 26 -4 17 -6 17 -12 -3 -11
-34 -39 -30 -32 5 3 15 -2 44 -11 65 -14 34 -20 38 -44 35 -31 -5 -32 -4 -19
20 8 15 4 17 -35 13 l-45 -3 3 37 c1 21 -3 40 -11 44 -10 7 -10 10 -1 16 7 4
16 1 21 -6 7 -11 9 -9 9 8 0 12 -6 24 -12 26 -10 4 -10 8 2 16 8 5 18 7 22 5
4 -3 8 6 8 20 0 41 10 58 26 45 15 -12 44 -6 44 11 0 5 -8 10 -17 11 -14 0
-15 2 -3 6 8 4 23 16 32 27 10 12 22 26 28 33 12 15 13 26 1 19 -5 -4 -11 0
-14 6 -3 8 -9 1 -16 -14 -6 -18 -18 -28 -31 -28 -11 0 -20 -4 -20 -10 0 -5 -9
-14 -20 -20 -32 -17 -11 22 30 56 19 16 40 33 46 39 152 143 253 217 304 224
6 0 9 5 8 10 -2 5 0 9 4 10 5 1 25 17 45 36 20 19 43 35 50 35 7 0 13 5 13 10
0 15 12 12 40 -11 15 -12 19 -19 10 -18 -49 5 -76 -2 -85 -23 -6 -13 -14 -22
-18 -20 -5 2 -23 -8 -42 -22 -18 -14 -38 -26 -43 -26 -6 0 -12 -7 -16 -15 -4
-12 -2 -13 13 -6 10 6 26 10 37 11 70 2 104 15 99 40 -3 15 2 18 25 18 36 -1
111 66 85 76 -10 3 -13 2 -10 -5 7 -11 -27 -8 -57 5 -23 10 -12 20 69 70 56
33 84 56 69 56 -3 0 -7 -3 -10 -7z m-843 -710 c-13 -9 -23 -22 -23 -29 0 -8
-4 -14 -10 -14 -15 0 -12 18 5 32 9 7 21 18 28 24 7 7 14 10 17 7 3 -3 -5 -12
-17 -20z m251 -159 c9 -3 16 -16 16 -28 -1 -21 -1 -21 -12 -1 -6 11 -16 23
-22 27 -13 9 -3 10 18 2z m-154 -24 c0 -5 -2 -10 -4 -10 -3 0 -8 5 -11 10 -3
6 -1 10 4 10 6 0 11 -4 11 -10z m153 -43 c14 -22 14 -23 -17 -24 -17 -1 -25 1
-18 3 18 8 15 32 -5 37 -14 4 -14 5 3 6 12 1 28 -9 37 -22z m132 -147 c-3 -5
-11 -10 -16 -10 -6 0 -7 5 -4 10 3 6 11 10 16 10 6 0 7 -4 4 -10z m365 -28 c0
-5 -13 -7 -30 -4 -16 2 -30 6 -30 8 0 2 14 4 30 4 17 0 30 -4 30 -8z m82 -14
c-7 -7 -18 -13 -25 -13 -7 -1 -11 -7 -9 -14 1 -7 -2 -10 -8 -6 -17 11 -11 23
18 33 37 14 38 14 24 0z m-197 -8 c4 -6 -6 -10 -22 -9 -25 0 -26 1 -8 9 11 5
21 9 22 9 1 1 5 -3 8 -9z m41 -10 c0 -11 -5 -21 -12 -24 -7 -3 -9 5 -6 20 5
29 18 32 18 4z m97 -27 c-7 -2 -13 -10 -13 -17 0 -14 -51 -62 -62 -58 -5 1 -8
-4 -8 -12 0 -16 -75 -86 -93 -86 -8 0 -7 -4 3 -10 12 -8 11 -10 -7 -10 -13 0
-23 3 -23 7 0 8 142 143 150 143 4 0 13 11 20 25 7 14 20 25 29 24 11 0 12 -2
4 -6z m-193 -53 c0 -5 -5 -10 -11 -10 -5 0 -7 5 -4 10 3 6 8 10 11 10 2 0 4
-4 4 -10z m-40 -30 c0 -5 -9 -10 -21 -10 -11 0 -17 5 -14 10 3 6 13 10 21 10
8 0 14 -4 14 -10z m-30 -80 c0 -5 -7 -7 -15 -4 -8 4 -15 8 -15 10 0 2 7 4 15
4 8 0 15 -4 15 -10z"/>
<path d="M7916 8632 c-12 -20 15 -34 73 -37 49 -4 61 -1 61 10 0 17 27 20 32
4 2 -6 12 -7 27 -1 22 8 23 9 5 14 -10 3 -55 6 -99 7 -43 1 -82 4 -86 7 -4 2
-10 1 -13 -4z"/>
<path d="M7868 8623 c6 -2 18 -2 25 0 6 3 1 5 -13 5 -14 0 -19 -2 -12 -5z"/>
<path d="M8142 8608 c7 -19 38 -22 38 -4 0 10 -9 16 -21 16 -12 0 -19 -5 -17
-12z"/>
<path d="M8277 8613 c-9 -2 -15 -9 -12 -14 9 -14 41 -11 55 6 10 12 9 15 -6
14 -11 -1 -27 -3 -37 -6z"/>
<path d="M8975 8547 c-8 -12 -15 -30 -15 -40 0 -17 2 -17 16 -6 13 10 17 10
24 0 4 -8 16 -11 29 -6 12 4 28 2 36 -5 17 -14 35 -5 35 17 0 10 -6 13 -16 9
-8 -3 -22 1 -31 10 -9 8 -22 13 -29 10 -8 -3 -11 0 -8 8 9 24 -25 26 -41 3z"/>
<path d="M5728 8543 c7 -3 16 -2 19 1 4 3 -2 6 -13 5 -11 0 -14 -3 -6 -6z"/>
<path d="M8034 8521 c5 -7 -8 -11 -41 -12 -26 -1 -59 -5 -73 -9 -23 -7 -22 -8
10 -10 28 -1 31 -3 15 -9 -11 -4 88 -11 220 -14 132 -3 287 -13 345 -21 375
-53 732 -176 1080 -374 266 -150 417 -268 630 -490 85 -89 156 -160 157 -158
2 2 -14 21 -34 43 -64 68 -74 85 -61 100 8 10 7 12 -5 8 -23 -9 -59 33 -47 56
12 21 -6 37 -22 21 -10 -10 -65 33 -60 49 1 5 -3 9 -9 9 -7 0 -19 8 -28 18 -9
11 -26 24 -39 31 -12 7 -20 16 -17 22 4 5 2 9 -3 9 -5 0 -25 13 -43 30 -19 16
-39 30 -46 30 -6 0 -13 3 -15 8 -1 4 -30 25 -63 48 -33 22 -91 62 -128 87 -38
26 -72 47 -77 47 -5 0 -13 6 -17 13 -10 15 -52 41 -125 75 -56 26 -73 42 -44
42 8 0 25 -4 39 -9 30 -11 58 2 40 20 -6 6 -23 12 -38 12 -18 0 -25 4 -21 13
5 12 2 12 -15 3 -12 -6 -19 -7 -16 -2 3 5 -4 15 -15 22 -18 11 -20 11 -15 -3
4 -9 2 -16 -3 -16 -15 0 -7 -24 10 -32 13 -6 13 -7 -1 -7 -9 -1 -31 9 -50 22
-42 27 -71 41 -129 61 -25 8 -72 25 -105 37 -33 12 -94 34 -135 48 -56 20 -76
31 -78 46 -2 12 0 16 5 9 4 -6 29 -14 56 -18 26 -4 59 -14 75 -22 15 -7 39
-14 54 -14 15 0 29 -4 32 -9 12 -18 72 -8 90 16 16 22 16 24 -1 48 -23 32 -53
42 -67 23 -8 -11 -15 -12 -28 -5 -12 8 -24 7 -42 -2 -22 -12 -30 -11 -64 7
-24 12 -49 18 -67 14 -19 -3 -26 -1 -21 7 10 16 0 14 -18 -5 -15 -14 -17 -14
-22 0 -8 20 -34 21 -34 1 0 -10 -6 -12 -17 -8 -17 6 -17 6 -1 -10 9 -9 26 -17
37 -17 12 0 21 -6 21 -16 0 -11 -6 -14 -22 -8 -13 4 -32 9 -43 11 -45 7 -131
26 -145 31 -8 3 -19 6 -25 6 -5 1 -44 7 -85 14 -104 18 -145 24 -145 21 0 -1
-11 3 -24 11 l-24 13 22 11 c20 11 19 12 -14 13 -27 1 -35 -2 -31 -13 3 -8 -1
-14 -9 -14 -9 0 -12 6 -9 15 5 12 -5 15 -52 16 -33 0 -80 2 -106 4 -27 1 -48
-2 -48 -7 0 -6 -13 -7 -32 -2 -18 4 -44 8 -58 9 -14 1 -36 5 -49 9 -16 6 -21
5 -17 -3z m1146 -135 c0 -3 -4 -8 -10 -11 -5 -3 -10 -1 -10 4 0 6 5 11 10 11
6 0 10 -2 10 -4z m1050 -740 c0 -3 -4 -8 -10 -11 -5 -3 -10 -1 -10 4 0 6 5 11
10 11 6 0 10 -2 10 -4z"/>
<path d="M10455 8520 c-3 -5 1 -10 10 -10 9 0 13 5 10 10 -3 6 -8 10 -10 10
-2 0 -7 -4 -10 -10z"/>
<path d="M9030 8464 c0 -8 5 -12 10 -9 6 4 8 11 5 16 -9 14 -15 11 -15 -7z"/>
<path d="M7868 8463 c12 -2 30 -2 40 0 9 3 -1 5 -23 4 -22 0 -30 -2 -17 -4z"/>
<path d="M8850 8455 c-14 -8 -20 -14 -14 -15 5 0 19 7 30 15 24 18 16 19 -16
0z"/>
<path d="M9392 8448 c4 -28 23 -26 24 2 1 11 -5 20 -13 20 -9 0 -13 -8 -11
-22z"/>
<path d="M7788 8453 c6 -2 18 -2 25 0 6 3 1 5 -13 5 -14 0 -19 -2 -12 -5z"/>
<path d="M7688 8443 c6 -2 18 -2 25 0 6 3 1 5 -13 5 -14 0 -19 -2 -12 -5z"/>
<path d="M7558 8423 c6 -2 18 -2 25 0 6 3 1 5 -13 5 -14 0 -19 -2 -12 -5z"/>
<path d="M10646 8407 c3 -10 9 -15 12 -12 3 3 0 11 -7 18 -10 9 -11 8 -5 -6z"/>
<path d="M7468 8403 c7 -3 16 -2 19 1 4 3 -2 6 -13 5 -11 0 -14 -3 -6 -6z"/>
<path d="M9390 8393 c0 -4 5 -15 10 -23 8 -13 10 -13 10 2 0 9 -4 20 -10 23
-5 3 -10 3 -10 -2z"/>
<path d="M6968 8383 c-19 -5 -25 -33 -7 -33 5 0 8 -4 5 -9 -3 -5 9 -12 27 -16
17 -4 37 -9 44 -10 7 -2 12 0 11 3 -1 4 3 17 10 29 11 19 9 24 -7 33 -20 10
-52 11 -83 3z"/>
<path d="M9336 8281 c-4 -7 -5 -15 -2 -18 9 -9 19 4 14 18 -4 11 -6 11 -12 0z"/>
<path d="M10690 8255 c0 -2 9 -9 19 -14 14 -8 20 -7 24 2 3 8 -4 14 -19 15
-13 1 -24 0 -24 -3z"/>
<path d="M10760 8211 c0 -6 4 -13 10 -16 6 -3 7 1 4 9 -7 18 -14 21 -14 7z"/>
<path d="M5440 8200 c0 -5 5 -10 10 -10 6 0 10 5 10 10 0 6 -4 10 -10 10 -5 0
-10 -4 -10 -10z"/>
<path d="M9630 8200 c0 -13 18 -22 24 -11 3 5 -1 11 -9 15 -8 3 -15 1 -15 -4z"/>
<path d="M10830 8166 c0 -8 -8 -17 -17 -19 -14 -4 -14 -5 3 -6 14 -1 24 6 27
19 3 11 1 20 -4 20 -5 0 -9 -6 -9 -14z"/>
<path d="M5473 8125 c-8 -22 6 -33 17 -15 13 20 12 30 0 30 -6 0 -13 -7 -17
-15z"/>
<path d="M9680 8130 c0 -5 -7 -10 -16 -10 -13 0 -13 -2 2 -17 10 -10 28 -16
42 -14 17 2 22 -1 17 -10 -5 -8 -4 -10 3 -5 21 12 13 42 -13 54 -32 15 -35 15
-35 2z"/>
<path d="M5407 8114 c-8 -8 1 -24 14 -24 5 0 9 7 9 15 0 15 -12 20 -23 9z"/>
<path d="M5600 7940 c0 -5 5 -10 10 -10 6 0 10 5 10 10 0 6 -4 10 -10 10 -5 0
-10 -4 -10 -10z"/>
<path d="M5660 7875 c0 -21 5 -25 29 -25 17 0 33 5 36 10 4 6 -5 10 -19 10
-16 0 -26 6 -26 15 0 8 -4 15 -10 15 -5 0 -10 -11 -10 -25z"/>
<path d="M6020 7834 c0 -14 29 -34 35 -23 4 6 13 8 21 5 8 -3 14 -2 14 3 0 15
-13 21 -26 10 -8 -7 -14 -7 -19 1 -7 11 -25 14 -25 4z"/>
<path d="M5893 7806 c13 -27 27 -25 27 5 0 12 -7 19 -19 19 -17 0 -18 -3 -8
-24z"/>
<path d="M6123 7793 c-15 -5 -17 -23 -4 -23 5 0 11 7 15 15 3 8 4 15 3 14 -1
0 -8 -3 -14 -6z"/>
<path d="M13965 7504 c-234 -33 -324 -65 -477 -165 -142 -94 -250 -199 -333
-324 -75 -112 -111 -193 -147 -331 -27 -104 -31 -141 -35 -295 -6 -198 8 -317
53 -460 94 -300 328 -570 586 -677 196 -82 347 -107 588 -99 175 6 261 22 395
72 300 113 518 346 643 687 l22 57 -321 3 -320 3 -30 -54 c-85 -151 -231 -236
-424 -248 -344 -21 -593 212 -612 572 -13 243 47 449 170 582 47 51 162 124
232 148 124 41 301 27 432 -36 75 -36 199 -151 222 -206 l13 -33 315 0 315 0
-7 31 c-20 90 -105 260 -182 364 -136 184 -340 317 -579 380 -88 24 -121 27
-294 30 -107 2 -208 1 -225 -1z"/>
<path d="M30455 7490 c-1 -3 -3 -529 -4 -1169 l-2 -1164 53 6 c29 4 160 7 291
7 l237 0 0 408 c0 224 0 412 0 417 0 6 71 9 200 6 211 -3 387 9 484 34 346 90
537 351 539 735 1 149 -14 217 -75 340 -61 123 -160 220 -288 282 -176 87
-201 91 -630 95 -206 2 -471 4 -588 6 -118 1 -215 0 -217 -3z m1080 -488 c65
-30 89 -53 116 -115 17 -40 23 -72 23 -137 1 -100 -13 -148 -60 -200 -45 -50
-113 -77 -220 -90 -98 -11 -323 -14 -348 -4 -14 5 -16 40 -16 291 l0 285 228
-4 c211 -3 231 -5 277 -26z"/>
<path d="M32788 7493 l-248 -3 0 -1160 0 -1160 289 0 290 0 -2 1163 -2 1162
-40 0 c-22 1 -151 -1 -287 -2z"/>
<path d="M15580 6328 l0 -1163 685 0 685 0 0 224 0 223 -382 -3 c-211 -2 -389
0 -396 5 -12 7 -13 169 -10 940 l3 931 -292 3 -293 2 0 -1162z"/>
<path d="M17238 6328 c2 -639 4 -1162 5 -1163 1 0 131 1 290 3 l287 4 0 1159
0 1159 -292 0 -293 0 3 -1162z"/>
<path d="M18231 6324 l-2 -1167 62 7 c34 3 165 6 291 6 l230 0 -4 413 -3 412
280 6 c362 9 487 34 631 128 190 123 300 319 319 571 27 337 -167 628 -492
741 -125 43 -217 49 -779 49 l-531 0 -2 -1166z m1031 691 c76 -19 133 -58 166
-114 23 -39 27 -59 30 -143 4 -90 2 -102 -23 -153 -53 -110 -146 -144 -406
-152 -97 -3 -189 -3 -204 1 l-28 7 4 282 c2 155 7 284 11 287 14 11 395 -1
450 -15z"/>
<path d="M28665 7478 c-2 -7 -22 -65 -44 -128 -21 -63 -58 -162 -81 -220 -23
-58 -69 -177 -101 -265 -32 -88 -94 -252 -139 -365 -75 -191 -135 -350 -312
-835 -38 -104 -96 -259 -130 -343 -33 -84 -59 -154 -57 -156 2 -1 143 0 313 3
l309 6 67 200 67 200 447 -1 448 -1 24 -69 c14 -38 44 -121 68 -184 24 -63 47
-123 50 -132 5 -16 33 -17 313 -20 169 -2 309 -3 311 -2 3 1 -55 152 -203 529
-63 160 -155 398 -204 530 -49 132 -101 269 -116 305 -33 81 -125 328 -125
335 0 3 -31 85 -69 182 -39 98 -92 237 -119 308 l-49 130 -332 3 c-260 2 -332
0 -336 -10z m408 -810 c36 -101 98 -275 137 -388 39 -113 75 -215 80 -228 6
-13 10 -25 10 -27 0 -3 -133 -5 -295 -5 -244 0 -295 2 -295 14 0 7 16 58 36
112 35 95 90 254 188 544 26 74 48 141 51 148 11 30 26 1 88 -170z"/>
<path d="M11445 7440 c-3 -5 -1 -10 4 -10 6 0 11 5 11 10 0 6 -2 10 -4 10 -3
0 -8 -4 -11 -10z"/>
<path d="M10506 7260 c4 -8 38 -58 75 -110 143 -202 160 -226 180 -265 27 -50
25 -48 39 -40 7 4 3 16 -10 33 -35 44 -80 116 -80 127 0 6 -23 35 -50 64 -29
31 -48 61 -45 68 2 8 0 11 -5 8 -6 -3 -13 2 -17 11 -7 18 -20 35 -68 89 -15
17 -23 23 -19 15z"/>
<path d="M11225 7072 c-114 -54 -185 -91 -170 -91 6 0 73 31 150 69 158 78
172 92 20 22z"/>
<path d="M10713 7095 c0 -7 6 -11 14 -8 7 3 13 6 13 8 0 2 -6 5 -13 8 -8 3
-14 -1 -14 -8z"/>
<path d="M22415 7019 c-208 -32 -428 -161 -563 -332 -142 -178 -200 -382 -189
-661 8 -208 48 -341 145 -483 126 -185 291 -300 517 -359 122 -32 368 -44 493
-24 386 62 665 309 754 668 19 74 22 116 22 272 0 173 -2 191 -27 273 -80 260
-247 453 -489 566 -143 68 -218 83 -423 87 -99 1 -207 -1 -240 -7z m330 -493
c131 -34 217 -123 262 -266 25 -80 24 -285 -1 -360 -41 -121 -122 -212 -222
-249 -99 -37 -281 -24 -363 27 -129 79 -201 252 -188 452 16 249 169 409 392
410 39 0 93 -6 120 -14z"/>
<path d="M10762 7004 c-17 -18 -15 -27 5 -20 9 4 20 1 25 -6 6 -11 8 -10 8 0
0 7 -6 19 -13 26 -10 11 -15 11 -25 0z"/>
<path d="M21392 7009 c-95 -9 -175 -30 -246 -66 -57 -29 -154 -118 -198 -181
-16 -23 -33 -40 -39 -37 -5 4 -9 62 -9 130 0 68 -3 130 -6 139 -5 14 -40 16
-285 16 l-279 0 0 -732 c0 -403 -3 -817 -7 -920 l-6 -188 291 0 292 0 0 473
c0 574 5 612 92 693 77 73 180 99 374 92 l125 -4 -7 296 c-4 162 -7 295 -8
295 0 1 -38 -2 -84 -6z"/>
<path d="M23719 7002 c-13 -2 8 -38 85 -146 55 -79 157 -223 226 -320 203
-288 236 -334 275 -382 l37 -44 -27 -33 c-25 -30 -321 -475 -494 -742 -43 -66
-86 -128 -95 -138 -10 -10 -17 -19 -15 -21 7 -6 174 -9 406 -8 l221 2 50 78
c27 42 82 132 123 200 117 194 133 221 144 231 7 6 66 -77 175 -246 90 -140
169 -257 175 -259 5 -2 157 -3 338 -2 l327 3 -88 120 c-166 228 -182 251 -300
420 -65 94 -151 216 -191 272 l-73 103 50 67 c27 38 94 138 149 223 55 85 168
258 252 384 83 125 151 231 151 235 0 6 -620 5 -625 -1 -1 -2 -64 -109 -140
-238 -76 -129 -145 -242 -152 -250 -13 -13 -16 -13 -26 3 -29 43 -194 301
-250 392 l-62 100 -315 0 c-173 0 -322 -1 -331 -3z"/>
<path d="M25700 6998 c0 -14 50 -134 120 -288 26 -58 105 -243 175 -410 70
-168 162 -386 205 -485 155 -358 218 -501 240 -546 l22 -45 -31 -62 c-17 -34
-59 -124 -92 -199 -33 -76 -85 -191 -115 -255 -30 -65 -81 -178 -114 -253
l-59 -135 301 2 301 3 17 50 c10 28 65 156 123 285 90 201 272 625 395 920 19
47 68 163 109 258 40 95 73 174 73 177 0 2 27 66 61 141 33 76 78 185 99 243
30 80 167 412 246 597 4 9 -72 11 -297 10 l-302 -3 -54 -149 c-30 -82 -81
-221 -113 -309 -32 -88 -90 -243 -128 -345 -39 -102 -81 -220 -94 -262 -12
-43 -26 -78 -29 -78 -3 0 -67 165 -143 368 -76 202 -158 417 -181 477 -24 61
-55 144 -70 185 -15 41 -34 85 -41 98 l-14 22 -305 0 c-232 0 -305 -3 -305
-12z"/>
<path d="M10815 6990 c-3 -5 1 -10 9 -10 9 0 16 5 16 10 0 6 -4 10 -9 10 -6 0
-13 -4 -16 -10z"/>
<path d="M10850 6970 c0 -5 5 -10 11 -10 5 0 7 5 4 10 -3 6 -8 10 -11 10 -2 0
-4 -4 -4 -10z"/>
<path d="M10966 6941 c-4 -5 3 -7 14 -4 23 6 26 13 6 13 -8 0 -17 -4 -20 -9z"/>
<path d="M6950 6901 c0 -11 57 -20 84 -13 20 5 20 5 0 13 -27 11 -84 11 -84 0z"/>
<path d="M7068 6893 c7 -3 16 -2 19 1 4 3 -2 6 -13 5 -11 0 -14 -3 -6 -6z"/>
<path d="M7884 6892 c9 -15 48 -23 43 -9 -2 7 -14 14 -26 15 -13 2 -21 -1 -17
-6z"/>
<path d="M8045 6890 c-4 -6 3 -10 14 -10 25 0 27 6 6 13 -8 4 -17 2 -20 -3z"/>
<path d="M8130 6890 c-12 -8 -11 -10 8 -10 12 0 22 5 22 10 0 13 -11 13 -30 0z"/>
<path d="M8270 6891 c0 -4 14 -12 30 -18 17 -6 28 -7 24 -2 -3 5 7 9 23 9 15
0 23 -4 17 -8 -21 -13 -26 -49 -9 -56 13 -4 15 -1 10 14 -4 13 1 27 14 42 12
12 21 17 21 12 0 -6 14 -9 31 -6 22 3 30 1 25 -6 -5 -8 10 -10 51 -6 91 10
107 20 43 28 -71 8 -280 6 -280 -3z"/>
<path d="M8228 6883 c6 -2 18 -2 25 0 6 3 1 5 -13 5 -14 0 -19 -2 -12 -5z"/>
<path d="M8313 6745 c-7 -7 -18 -15 -25 -18 -7 -2 -10 -7 -6 -11 10 -12 58 18
50 30 -5 9 -10 8 -19 -1z"/>
<path d="M8370 6740 c0 -5 7 -10 16 -10 8 0 12 5 9 10 -3 6 -10 10 -16 10 -5
0 -9 -4 -9 -10z"/>
<path d="M8228 6594 c-3 -3 -120 -7 -259 -8 -140 -2 -267 -7 -283 -11 -19 -5
-31 -4 -36 5 -4 7 -13 9 -19 6 -6 -4 -9 -12 -6 -17 3 -5 -1 -6 -9 -3 -9 3 -16
10 -16 16 0 5 -7 2 -17 -7 -13 -13 -14 -18 -3 -25 10 -6 8 -9 -6 -13 -17 -4
-17 -5 2 -6 11 0 26 5 34 12 12 10 12 9 2 -4 -17 -22 -73 -33 -85 -17 -7 10
-10 10 -14 1 -2 -7 -17 -13 -31 -14 l-27 -1 25 -7 c24 -8 1054 -2 1047 6 -2 2
-33 4 -70 4 -55 1 -65 4 -60 17 4 9 2 13 -4 9 -7 -5 -9 0 -6 12 3 12 11 17 19
14 9 -3 14 1 14 12 0 16 -7 17 -65 11 -42 -4 -65 -3 -65 4 0 10 -52 14 -62 4z
m-98 -58 c0 -3 -4 -8 -10 -11 -5 -3 -10 -1 -10 4 0 6 5 11 10 11 6 0 10 -2 10
-4z m60 -6 c0 -5 -4 -10 -10 -10 -5 0 -10 5 -10 10 0 6 5 10 10 10 6 0 10 -4
10 -10z m40 0 c0 -5 -4 -10 -10 -10 -5 0 -10 5 -10 10 0 6 5 10 10 10 6 0 10
-4 10 -10z"/>
<path d="M7517 6573 c-4 -3 -7 -11 -7 -17 0 -6 5 -5 12 2 6 6 9 14 7 17 -3 3
-9 2 -12 -2z"/>
<path d="M10215 4773 c-8 -20 -13 -38 -10 -41 3 -3 5 -3 5 0 0 3 7 22 15 42 8
20 13 36 10 36 -2 0 -12 -16 -20 -37z"/>
<path d="M10145 4619 c-4 -6 -5 -12 -2 -15 2 -3 7 2 10 11 7 17 1 20 -8 4z"/>
<path d="M9956 4322 l-19 -27 24 22 c12 12 21 24 18 27 -2 2 -13 -8 -23 -22z"/>
<path d="M10745 4083 c-83 -187 -425 -632 -621 -809 -197 -177 -366 -301 -550
-407 -349 -199 -616 -293 -988 -349 -120 -18 -188 -22 -458 -22 l-318 -1 -2
-470 c-2 -259 -1 -472 0 -475 7 -9 496 -2 637 9 518 42 1069 199 1515 433 137
71 423 260 570 376 332 262 663 633 908 1018 83 130 175 300 170 313 -1 5
-109 63 -238 129 -338 171 -530 271 -567 294 l-33 19 -25 -58z"/>
<path d="M9631 4039 c-91 -66 -77 -62 32 9 20 14 37 26 37 28 0 10 -20 0 -69
-37z"/>
<path d="M13918 3993 c7 -3 16 -2 19 1 4 3 -2 6 -13 5 -11 0 -14 -3 -6 -6z"/>
<path d="M18468 3993 c7 -3 16 -2 19 1 4 3 -2 6 -13 5 -11 0 -14 -3 -6 -6z"/>
<path d="M22168 3993 c7 -3 16 -2 19 1 4 3 -2 6 -13 5 -11 0 -14 -3 -6 -6z"/>
<path d="M25563 3993 c9 -2 23 -2 30 0 6 3 -1 5 -18 5 -16 0 -22 -2 -12 -5z"/>
<path d="M29390 3980 c6 -11 13 -20 15 -20 3 0 5 9 5 20 0 11 -7 20 -15 20
-13 0 -14 -4 -5 -20z"/>
<path d="M29445 3990 c28 -12 47 -12 40 0 -3 6 -18 10 -33 9 -24 0 -25 -1 -7
-9z"/>
<path d="M30038 3993 c7 -3 16 -2 19 1 4 3 -2 6 -13 5 -11 0 -14 -3 -6 -6z"/>
<path d="M30405 3990 c3 -5 8 -10 11 -10 2 0 4 5 4 10 0 6 -5 10 -11 10 -5 0
-7 -4 -4 -10z"/>
<path d="M30983 3989 c14 -8 22 -8 30 0 8 8 3 11 -18 11 -26 -1 -28 -2 -12
-11z"/>
<path d="M9450 3930 c-8 -5 -10 -10 -5 -10 6 0 17 5 25 10 8 5 11 10 5 10 -5
0 -17 -5 -25 -10z"/>
<path d="M20794 3817 c3 -10 6 -23 6 -28 0 -5 5 -9 10 -9 14 0 12 13 -6 36
-14 17 -15 17 -10 1z"/>
<path d="M8830 3740 c-68 -15 -157 -22 -380 -29 l-225 -8 187 -1 c205 -2 407
12 484 33 l49 13 -40 0 c-22 0 -56 -4 -75 -8z"/>
<path d="M7470 3699 c0 -5 19 -9 42 -9 49 0 47 5 -4 13 -21 3 -38 2 -38 -4z"/>
<path d="M7663 3699 c-11 -5 5 -8 40 -8 31 -1 57 3 57 8 0 11 -69 11 -97 0z"/>
<path d="M7842 3704 c7 -7 259 -6 266 1 3 3 -57 5 -133 5 -76 0 -136 -3 -133
-6z"/>
<path d="M7568 3693 c6 -2 18 -2 25 0 6 3 1 5 -13 5 -14 0 -19 -2 -12 -5z"/>
<path d="M7618 3693 c7 -3 16 -2 19 1 4 3 -2 6 -13 5 -11 0 -14 -3 -6 -6z"/>
<path d="M14670 3558 c0 -12 1 -19 3 -17 1 2 9 12 16 22 12 14 11 17 -3 17
-10 0 -16 -8 -16 -22z"/>
<path d="M7403 3090 c0 -41 2 -58 4 -37 2 20 2 54 0 75 -2 20 -4 3 -4 -38z"/>
<path d="M13555 3110 c-3 -5 -1 -10 4 -10 6 0 11 5 11 10 0 6 -2 10 -4 10 -3
0 -8 -4 -11 -10z"/>
<path d="M7403 2415 c0 -27 2 -38 4 -22 2 15 2 37 0 50 -2 12 -4 0 -4 -28z"/>
<path d="M7401 2244 c-1 -52 -2 -98 -2 -102 -3 -19 2 -205 5 -201 9 10 17 399
8 399 -6 0 -10 -41 -11 -96z"/>
<path d="M6840 1755 c19 -7 42 -13 50 -13 8 0 -1 6 -20 13 -19 7 -42 13 -50
13 -8 0 1 -6 20 -13z"/>
</g>
</svg>
