<?xml version="1.0" standalone="no"?>
<!DOCTYPE svg PUBLIC "-//W3C//DTD SVG 20010904//EN"
 "http://www.w3.org/TR/2001/REC-SVG-20010904/DTD/svg10.dtd">
<svg version="1.0" xmlns="http://www.w3.org/2000/svg"
 width="280.000000pt" height="80.000000pt" viewBox="0 0 280.000000 80.000000"
 preserveAspectRatio="xMidYMid meet">

<g transform="translate(0.000000,80.000000) scale(0.100000,-0.100000)"
fill="#000000" stroke="none">
<path d="M455 590 c-3 -5 1 -10 9 -10 9 0 16 5 16 10 0 6 -4 10 -9 10 -6 0
-13 -4 -16 -10z"/>
<path d="M412 523 c-24 -53 -23 -186 1 -231 21 -39 85 -112 98 -112 16 0 10
77 -8 91 -50 42 -67 153 -33 227 16 34 16 42 5 42 -8 0 -15 5 -15 10 0 25 -33
6 -48 -27z"/>
<path d="M1030 530 c-28 -28 -27 -93 2 -120 29 -27 82 -26 110 2 27 27 10 36
-33 17 -27 -11 -33 -10 -51 9 -15 15 -19 27 -14 46 7 30 48 45 71 26 8 -6 22
-10 32 -8 16 3 16 5 -5 26 -29 29 -84 30 -112 2z"/>
<path d="M1190 470 l0 -80 45 0 c33 0 45 4 45 15 0 10 -10 15 -30 15 l-30 0 0
65 c0 51 -3 65 -15 65 -12 0 -15 -16 -15 -80z"/>
<path d="M1300 470 c0 -73 2 -80 20 -80 18 0 20 7 20 80 0 73 -2 80 -20 80
-18 0 -20 -7 -20 -80z"/>
<path d="M1370 470 c0 -73 2 -80 20 -80 16 0 20 7 20 30 0 26 4 30 28 30 35 0
52 16 52 50 0 38 -18 50 -72 50 l-48 0 0 -80z m85 30 c0 -8 -10 -16 -22 -18
-18 -3 -23 2 -23 18 0 16 5 21 23 18 12 -2 22 -10 22 -18z"/>
<path d="M2072 470 c-28 -75 -29 -80 -11 -80 11 0 22 7 25 15 4 9 19 15 39 15
20 0 35 -6 39 -15 5 -15 36 -21 36 -7 0 4 -12 40 -26 80 -22 60 -30 72 -49 72
-19 0 -27 -13 -53 -80z m65 -16 c-3 -3 -12 -4 -20 -2 -11 2 -12 9 -5 28 l10
25 11 -23 c5 -12 8 -25 4 -28z"/>
<path d="M2230 470 c0 -63 3 -80 14 -80 8 0 16 12 18 27 2 22 10 29 37 34 35
7 51 23 51 51 0 29 -29 48 -76 48 l-44 0 0 -80z m80 30 c0 -15 -7 -20 -25 -20
-18 0 -25 5 -25 20 0 15 7 20 25 20 18 0 25 -5 25 -20z"/>
<path d="M2370 470 c0 -73 2 -80 20 -80 18 0 20 7 20 80 0 73 -2 80 -20 80
-18 0 -20 -7 -20 -80z"/>
<path d="M1520 455 c0 -58 2 -65 20 -65 17 0 20 7 20 41 0 32 4 42 20 46 11 3
20 14 20 24 0 21 -15 25 -26 8 -4 -8 -9 -8 -17 0 -27 27 -37 11 -37 -54z"/>
<path d="M1635 495 c-14 -13 -25 -33 -25 -45 0 -50 79 -80 113 -42 25 27 22
78 -5 96 -32 22 -55 20 -83 -9z m65 -20 c18 -22 3 -57 -23 -53 -37 5 -33 67 4
68 4 0 12 -7 19 -15z"/>
<path d="M1760 514 c0 -3 9 -17 20 -31 l20 -26 -21 -33 -21 -34 21 0 c11 0 25
8 30 18 10 16 12 16 25 0 13 -17 52 -26 44 -10 -2 4 -10 19 -17 34 -12 24 -12
31 3 52 20 31 20 36 2 36 -8 0 -21 -9 -30 -21 l-14 -21 -11 21 c-10 19 -51 31
-51 15z"/>
<path d="M1900 511 c0 -5 11 -33 24 -63 22 -49 23 -57 10 -86 -12 -29 -11 -32
5 -32 14 0 28 22 55 86 20 47 36 90 36 95 0 21 -31 7 -41 -18 -5 -16 -12 -35
-15 -43 -4 -10 -12 -1 -25 28 -10 23 -25 42 -34 42 -8 0 -15 -4 -15 -9z"/>
<path d="M826 275 c-31 -40 -100 -75 -149 -75 -36 0 -37 -1 -37 -36 l0 -35 48
6 c82 12 140 46 190 109 28 36 28 40 -2 54 -22 10 -27 7 -50 -23z"/>
</g>
</svg>
